<mxfile host="app.diagrams.net" modified="2023-04-05T11:53:43.594Z" agent="Mozilla/5.0 (Windows NT 10.0; Win64; x64) AppleWebKit/537.36 (KHTML, like Gecko) Chrome/111.0.0.0 Safari/537.36" etag="qV6J8nSj6pfvAJLVPrxD" version="21.1.4" type="github">
  <diagram id="C5RBs43oDa-KdzZeNtuy" name="Page-1">
    <mxGraphModel dx="1434" dy="796" grid="1" gridSize="10" guides="1" tooltips="1" connect="1" arrows="1" fold="1" page="1" pageScale="1" pageWidth="827" pageHeight="1169" math="0" shadow="0">
      <root>
        <mxCell id="WIyWlLk6GJQsqaUBKTNV-0" />
        <mxCell id="WIyWlLk6GJQsqaUBKTNV-1" parent="WIyWlLk6GJQsqaUBKTNV-0" />
        <mxCell id="0UrrI6oEiuyf_MLgHTsS-3" value="" style="edgeStyle=orthogonalEdgeStyle;rounded=0;orthogonalLoop=1;jettySize=auto;html=1;" edge="1" parent="WIyWlLk6GJQsqaUBKTNV-1" source="0UrrI6oEiuyf_MLgHTsS-0" target="0UrrI6oEiuyf_MLgHTsS-1">
          <mxGeometry relative="1" as="geometry" />
        </mxCell>
        <mxCell id="0UrrI6oEiuyf_MLgHTsS-0" value="start" style="ellipse;whiteSpace=wrap;html=1;" vertex="1" parent="WIyWlLk6GJQsqaUBKTNV-1">
          <mxGeometry x="360" y="70" width="120" height="100" as="geometry" />
        </mxCell>
        <mxCell id="0UrrI6oEiuyf_MLgHTsS-5" value="" style="edgeStyle=orthogonalEdgeStyle;rounded=0;orthogonalLoop=1;jettySize=auto;html=1;" edge="1" parent="WIyWlLk6GJQsqaUBKTNV-1" source="0UrrI6oEiuyf_MLgHTsS-1" target="0UrrI6oEiuyf_MLgHTsS-4">
          <mxGeometry relative="1" as="geometry" />
        </mxCell>
        <mxCell id="0UrrI6oEiuyf_MLgHTsS-1" value="pobierz a" style="rounded=0;whiteSpace=wrap;html=1;" vertex="1" parent="WIyWlLk6GJQsqaUBKTNV-1">
          <mxGeometry x="360" y="210" width="120" height="60" as="geometry" />
        </mxCell>
        <mxCell id="0UrrI6oEiuyf_MLgHTsS-9" value="" style="edgeStyle=orthogonalEdgeStyle;rounded=0;orthogonalLoop=1;jettySize=auto;html=1;" edge="1" parent="WIyWlLk6GJQsqaUBKTNV-1" source="0UrrI6oEiuyf_MLgHTsS-4" target="0UrrI6oEiuyf_MLgHTsS-8">
          <mxGeometry relative="1" as="geometry" />
        </mxCell>
        <mxCell id="0UrrI6oEiuyf_MLgHTsS-11" value="" style="edgeStyle=orthogonalEdgeStyle;rounded=0;orthogonalLoop=1;jettySize=auto;html=1;" edge="1" parent="WIyWlLk6GJQsqaUBKTNV-1" source="0UrrI6oEiuyf_MLgHTsS-4" target="0UrrI6oEiuyf_MLgHTsS-7">
          <mxGeometry relative="1" as="geometry" />
        </mxCell>
        <mxCell id="0UrrI6oEiuyf_MLgHTsS-4" value="&amp;nbsp; a &amp;lt; 0&amp;nbsp;" style="rhombus;whiteSpace=wrap;html=1;" vertex="1" parent="WIyWlLk6GJQsqaUBKTNV-1">
          <mxGeometry x="375" y="300" width="90" height="90" as="geometry" />
        </mxCell>
        <mxCell id="0UrrI6oEiuyf_MLgHTsS-18" style="edgeStyle=orthogonalEdgeStyle;rounded=0;orthogonalLoop=1;jettySize=auto;html=1;entryX=-0.025;entryY=0.617;entryDx=0;entryDy=0;entryPerimeter=0;" edge="1" parent="WIyWlLk6GJQsqaUBKTNV-1" source="0UrrI6oEiuyf_MLgHTsS-7" target="0UrrI6oEiuyf_MLgHTsS-17">
          <mxGeometry relative="1" as="geometry">
            <Array as="points">
              <mxPoint x="260" y="497" />
            </Array>
          </mxGeometry>
        </mxCell>
        <mxCell id="0UrrI6oEiuyf_MLgHTsS-7" value="a" style="rounded=0;whiteSpace=wrap;html=1;" vertex="1" parent="WIyWlLk6GJQsqaUBKTNV-1">
          <mxGeometry x="200" y="315" width="120" height="60" as="geometry" />
        </mxCell>
        <mxCell id="0UrrI6oEiuyf_MLgHTsS-20" style="edgeStyle=orthogonalEdgeStyle;rounded=0;orthogonalLoop=1;jettySize=auto;html=1;entryX=1;entryY=0.5;entryDx=0;entryDy=0;" edge="1" parent="WIyWlLk6GJQsqaUBKTNV-1" source="0UrrI6oEiuyf_MLgHTsS-8" target="0UrrI6oEiuyf_MLgHTsS-17">
          <mxGeometry relative="1" as="geometry">
            <Array as="points">
              <mxPoint x="580" y="490" />
            </Array>
          </mxGeometry>
        </mxCell>
        <mxCell id="0UrrI6oEiuyf_MLgHTsS-8" value="pomnóż przez -1" style="rounded=0;whiteSpace=wrap;html=1;" vertex="1" parent="WIyWlLk6GJQsqaUBKTNV-1">
          <mxGeometry x="520" y="315" width="120" height="60" as="geometry" />
        </mxCell>
        <mxCell id="0UrrI6oEiuyf_MLgHTsS-10" value="TAK" style="text;html=1;align=center;verticalAlign=middle;resizable=0;points=[];autosize=1;strokeColor=none;fillColor=none;" vertex="1" parent="WIyWlLk6GJQsqaUBKTNV-1">
          <mxGeometry x="465" y="315" width="50" height="30" as="geometry" />
        </mxCell>
        <mxCell id="0UrrI6oEiuyf_MLgHTsS-12" value="NIE" style="text;html=1;align=center;verticalAlign=middle;resizable=0;points=[];autosize=1;strokeColor=none;fillColor=none;" vertex="1" parent="WIyWlLk6GJQsqaUBKTNV-1">
          <mxGeometry x="340" y="315" width="40" height="30" as="geometry" />
        </mxCell>
        <mxCell id="0UrrI6oEiuyf_MLgHTsS-14" value="Stop" style="ellipse;whiteSpace=wrap;html=1;" vertex="1" parent="WIyWlLk6GJQsqaUBKTNV-1">
          <mxGeometry x="360" y="600" width="120" height="80" as="geometry" />
        </mxCell>
        <mxCell id="0UrrI6oEiuyf_MLgHTsS-21" style="edgeStyle=orthogonalEdgeStyle;rounded=0;orthogonalLoop=1;jettySize=auto;html=1;" edge="1" parent="WIyWlLk6GJQsqaUBKTNV-1" source="0UrrI6oEiuyf_MLgHTsS-17" target="0UrrI6oEiuyf_MLgHTsS-14">
          <mxGeometry relative="1" as="geometry" />
        </mxCell>
        <mxCell id="0UrrI6oEiuyf_MLgHTsS-17" value="Wypisz wynik" style="rounded=0;whiteSpace=wrap;html=1;" vertex="1" parent="WIyWlLk6GJQsqaUBKTNV-1">
          <mxGeometry x="360" y="460" width="120" height="60" as="geometry" />
        </mxCell>
      </root>
    </mxGraphModel>
  </diagram>
</mxfile>
